<svg width="17" height="17" viewBox="0 0 17 17" fill="none" xmlns="http://www.w3.org/2000/svg">
<g clip-path="url(#clip0_7_2)">
<path d="M8.51601 0C3.82901 0 0.0160065 3.813 0.0160065 8.5C0.0160065 13.187 3.82901 17 8.51601 17C13.203 17 17.016 13.187 17.016 8.5C17.016 3.813 13.202 0 8.51601 0ZM1.04101 9H3.97801C4.02201 10.024 4.18901 11.031 4.49101 12H1.88801C1.40701 11.094 1.11201 10.077 1.04101 9ZM3.97801 8H1.04101C1.11201 6.923 1.40701 5.906 1.88801 5H4.48801C4.18701 5.969 4.02101 6.976 3.97801 8ZM5.54701 5H11.443C11.773 5.965 11.965 6.972 12.012 8H4.97801C5.02401 6.972 5.21701 5.965 5.54701 5ZM4.97801 9H12.013C11.964 10.028 11.772 11.035 11.441 12H5.55001C5.21901 11.035 5.02601 10.028 4.97801 9ZM13.013 9H15.991C15.92 10.077 15.625 11.094 15.144 12H12.5C12.802 11.031 12.969 10.024 13.013 9ZM13.013 8C12.97 6.976 12.804 5.969 12.503 5H15.144C15.624 5.906 15.919 6.923 15.991 8H13.013ZM14.502 4H12.148C11.756 3.045 11.232 2.142 10.598 1.3C12.176 1.757 13.536 2.72 14.502 4ZM9.07401 1.028C9.89801 1.925 10.558 2.928 11.046 4H5.94401C6.43101 2.929 7.09001 1.927 7.91401 1.03C8.11301 1.015 8.31201 1 8.51601 1C8.70401 1 8.88901 1.015 9.07401 1.028ZM6.38301 1.313C5.75401 2.151 5.23201 3.05 4.84301 4H2.52901C3.48401 2.733 4.82601 1.776 6.38301 1.313ZM2.52901 13H4.84601C5.23701 13.951 5.76101 14.851 6.39301 15.689C4.83201 15.228 3.48601 14.27 2.52901 13ZM7.92601 15.97C7.10001 15.073 6.43801 14.071 5.94801 13H11.042C10.552 14.072 9.89001 15.075 9.06301 15.972C8.88201 15.985 8.70001 16 8.51601 16C8.31601 16 8.12101 15.985 7.92601 15.97ZM10.587 15.703C11.223 14.861 11.751 13.956 12.144 13H14.502C13.534 14.283 12.17 15.247 10.587 15.703Z" fill="#2659CF"/>
</g>
<defs>
<clipPath id="clip0_7_2">
<rect width="17" height="17" fill="white"/>
</clipPath>
</defs>
</svg>
